<svg width="980" height="760" viewBox="0 0 980 760" fill="none" xmlns="http://www.w3.org/2000/svg">
  <defs>
    <linearGradient id="bgA" x1="120" y1="60" x2="860" y2="700" gradientUnits="userSpaceOnUse">
      <stop stop-color="#28C6D2"/>
      <stop offset="0.52" stop-color="#3F92DF"/>
      <stop offset="1" stop-color="#6260D6"/>
    </linearGradient>
    <linearGradient id="cardA" x1="210" y1="170" x2="730" y2="620" gradientUnits="userSpaceOnUse">
      <stop stop-color="#FFFFFF" stop-opacity="0.96"/>
      <stop offset="1" stop-color="#EBF5FF" stop-opacity="0.96"/>
    </linearGradient>
  </defs>
  <rect width="980" height="760" rx="48" fill="#F4F9FF"/>
  <circle cx="180" cy="130" r="160" fill="url(#bgA)" fill-opacity="0.28"/>
  <circle cx="820" cy="620" r="210" fill="url(#bgA)" fill-opacity="0.22"/>
  <rect x="120" y="98" width="740" height="560" rx="36" fill="url(#cardA)"/>
  <rect x="166" y="150" width="648" height="84" rx="20" fill="#FFFFFF"/>
  <rect x="190" y="182" width="186" height="20" rx="10" fill="#DAEAFE"/>
  <rect x="606" y="172" width="184" height="40" rx="20" fill="url(#bgA)"/>
  <rect x="166" y="262" width="300" height="170" rx="22" fill="#FFFFFF"/>
  <rect x="494" y="262" width="320" height="80" rx="18" fill="#FFFFFF"/>
  <rect x="494" y="354" width="320" height="78" rx="18" fill="#FFFFFF"/>
  <rect x="166" y="448" width="648" height="164" rx="22" fill="#FFFFFF"/>
  <circle cx="228" cy="307" r="28" fill="url(#bgA)"/>
  <rect x="268" y="286" width="156" height="14" rx="7" fill="#DCEBFF"/>
  <rect x="268" y="314" width="128" height="12" rx="6" fill="#E8F2FF"/>
  <rect x="268" y="338" width="96" height="12" rx="6" fill="#E8F2FF"/>
  <rect x="528" y="288" width="182" height="12" rx="6" fill="#E0EEFF"/>
  <rect x="528" y="310" width="230" height="12" rx="6" fill="#E0EEFF"/>
  <rect x="528" y="380" width="182" height="12" rx="6" fill="#E0EEFF"/>
  <rect x="528" y="402" width="230" height="12" rx="6" fill="#E0EEFF"/>
  <circle cx="234" cy="516" r="18" fill="#3F92DF"/>
  <rect x="266" y="504" width="220" height="12" rx="6" fill="#DCEBFF"/>
  <rect x="266" y="528" width="170" height="12" rx="6" fill="#E8F2FF"/>
  <circle cx="234" cy="570" r="18" fill="#6260D6"/>
  <rect x="266" y="558" width="260" height="12" rx="6" fill="#DCEBFF"/>
  <rect x="266" y="582" width="150" height="12" rx="6" fill="#E8F2FF"/>
  <rect x="580" y="500" width="206" height="86" rx="18" fill="url(#bgA)"/>
  <rect x="604" y="530" width="160" height="12" rx="6" fill="#FFFFFF" fill-opacity="0.92"/>
  <rect x="604" y="552" width="102" height="10" rx="5" fill="#FFFFFF" fill-opacity="0.76"/>
</svg>
